<?xml version="1.0"?>
<svg width="80" height="80" xmlns="http://www.w3.org/2000/svg">
 <!-- Created with Method Draw - http://github.com/duopixel/Method-Draw/ -->
 <g>
  <title>background</title>
  <rect fill="none" id="canvas_background" height="82" width="82" y="-1" x="-1"/>
  <g display="none" overflow="visible" y="0" x="0" height="100%" width="100%" id="canvasGrid">
   <rect fill="url(#gridpattern)" stroke-width="0" y="0" x="0" height="100%" width="100%"/>
  </g>
 </g>
 <g>
  <title>Layer 1</title>
  <path id="svg_1" d="m38.942825,4.457195c-19.603121,0.00799 -35.49012,15.895042 -35.498651,35.501358c0,19.606236 15.89232,35.493282 35.498651,35.498646c19.603531,-0.005363 35.490509,-15.89241 35.495918,-35.496021c-0.002701,-19.60894 -15.889641,-35.503983 -35.495918,-35.503983zm27.084297,35.501358c-0.007988,5.446037 -1.633698,10.504997 -4.397591,14.754627l-37.440891,-37.435471c4.246372,-2.769321 9.30547,-4.397774 14.757343,-4.408934c14.956291,0.03047 27.056091,12.133501 27.081139,27.089777zm-54.174154,0c0.011238,-5.446121 1.636988,-10.51099 4.409037,-14.760139l37.432812,37.438175c-4.249603,2.763969 -9.306011,4.389748 -14.7547,4.397827c-14.953579,-0.013992 -27.056139,-12.11969 -27.087149,-27.075863z" stroke-width="1.5" stroke="#000" fill="#f93a04"/>
 </g>
</svg>